RobotoSerifTextWide-HairlineWidth730.ufo
<glyph name="question" format="2">
  <advance width="598.408"/>
  <unicode hex="003F"/>
  <outline>
    <contour>
      <point x="254.9996" y="346.736" type="line"/>
      <point x="380.581968627792" y="386.943972659972"/>
      <point x="477.31639999999993" y="433.598"/>
      <point x="477.31639999999993" y="558.816" type="curve" smooth="yes"/>
      <point x="477.31639999999993" y="658.85"/>
      <point x="404.0372" y="708.712"/>
      <point x="295.9924" y="708.712" type="curve" smooth="yes"/>
      <point x="199.9072" y="708.712"/>
      <point x="142.0412" y="672.528"/>
      <point x="111.2324" y="634.068" type="curve"/>
      <point x="112.14959999999999" y="649.218"/>
      <point x="104.9508" y="666.6320000000001"/>
      <point x="133.4652" y="671.6320000000001" type="curve"/>
      <point x="133.4652" y="582.712" type="line"/>
      <point x="82.1164" y="582.712" type="line"/>
      <point x="82.1164" y="665.218" type="line"/>
      <point x="118.25919999999999" y="694.816"/>
      <point x="187.47480000000002" y="740.092"/>
      <point x="295.744" y="740.092" type="curve" smooth="yes"/>
      <point x="433.408" y="740.092"/>
      <point x="521.6688" y="670.816"/>
      <point x="521.6688" y="558.816" type="curve" smooth="yes"/>
      <point x="521.6688" y="424.368"/>
      <point x="398.78091235512" y="360.291955379312"/>
      <point x="290.0484" y="325.13800000000003" type="curve"/>
      <point x="290.0484" y="194.012" type="line"/>
      <point x="254.9996" y="194.012" type="line"/>
    </contour>
    <component base="period" xOffset="162.2788" yOffset="-0.04600000000000001"/>
  </outline>
</glyph>
<glyph name="at" format="2">
  <advance width="1025.3708000000001"/>
  <unicode hex="0040"/>
  <outline>
    <contour>
      <point x="533.3976" y="-123.758" type="curve" smooth="yes"/>
      <point x="267.9876" y="-123.758"/>
      <point x="83.0684" y="14.644"/>
      <point x="83.0684" y="233.862" type="curve" smooth="yes"/>
      <point x="83.0684" y="468.17199999999997"/>
      <point x="287.74760000000003" y="644.712"/>
      <point x="562.7096" y="644.712" type="curve" smooth="yes"/>
      <point x="806.8628000000001" y="644.712"/>
      <point x="946.0936" y="512.264"/>
      <point x="946.0936" y="342.0" type="curve" smooth="yes"/>
      <point x="946.0936" y="166.058"/>
      <point x="850.6708" y="76.47200000000001"/>
      <point x="747.6416" y="76.47200000000001" type="curve" smooth="yes"/>
      <point x="671.7891999999999" y="76.47200000000001"/>
      <point x="638.1956" y="109.87400000000001"/>
      <point x="652.3668" y="179.0" type="curve" smooth="yes"/>
      <point x="710.6468" y="468.0" type="line"/>
      <point x="687.0304" y="468.0" type="line"/>
      <point x="655.1756" y="398.402" type="line"/>
      <point x="651.7092" y="392.448" type="line"/>
      <point x="601.3952" y="139.552" type="line"/>
      <point x="604.938" y="135.506"/>
      <point x="604.4412" y="140.184"/>
      <point x="605.3584" y="143.0" type="curve"/>
      <point x="609.7356" y="90.276"/>
      <point x="658.9667999999999" y="53.092"/>
      <point x="745.5064" y="53.092" type="curve" smooth="yes"/>
      <point x="866.3148" y="53.092"/>
      <point x="977.2988" y="159.0"/>
      <point x="977.2988" y="342.0" type="curve" smooth="yes"/>
      <point x="977.2988" y="532.0"/>
      <point x="816.6328" y="673.0"/>
      <point x="562.7096" y="673.0" type="curve" smooth="yes"/>
      <point x="273.352" y="673.0"/>
      <point x="51.7804" y="487.0"/>
      <point x="51.7804" y="233.862" type="curve" smooth="yes"/>
      <point x="51.7804" y="-5.138"/>
      <point x="253.59199999999998" y="-153.0"/>
      <point x="533.3976" y="-153.0" type="curve" smooth="yes"/>
      <point x="659.126" y="-153.0"/>
      <point x="764.6868" y="-120.276"/>
      <point x="826.0128" y="-88.552" type="curve"/>
      <point x="816.2492" y="-61.356" type="line"/>
      <point x="752.7575999999999" y="-93.034"/>
      <point x="656.7488000000001" y="-123.758"/>
    </contour>
    <contour>
      <point x="471.492" y="49.0" type="curve" smooth="yes"/>
      <point x="542.7904" y="49.0"/>
      <point x="584.522" y="95.69"/>
      <point x="632.2756" y="161.254" type="curve"/>
      <point x="629.9684" y="193.978" type="line"/>
      <point x="578.7676" y="125.242"/>
      <point x="539.4896" y="77.012"/>
      <point x="470.7468" y="77.012" type="curve" smooth="yes"/>
      <point x="395.888" y="77.012"/>
      <point x="356.9172" y="123.782"/>
      <point x="356.9172" y="220.632" type="curve" smooth="yes"/>
      <point x="356.9172" y="328.356"/>
      <point x="433.9876" y="445.942"/>
      <point x="542.198" y="445.942" type="curve" smooth="yes"/>
      <point x="603.892" y="445.942"/>
      <point x="640.9152" y="418.712"/>
      <point x="665.7148" y="328.988" type="curve"/>
      <point x="670.3228" y="376.654" type="line"/>
      <point x="655.2648" y="444.632"/>
      <point x="611.1956" y="474.0"/>
      <point x="546.486" y="474.0" type="curve" smooth="yes"/>
      <point x="411.6132" y="474.0"/>
      <point x="312.81960000000004" y="352.448"/>
      <point x="312.81960000000004" y="221.138" type="curve" smooth="yes"/>
      <point x="312.81960000000004" y="111.0"/>
      <point x="378.44" y="49.0"/>
    </contour>
  </outline>
</glyph>
<glyph name="S" format="2">
  <advance width="718"/>
  <unicode hex="0053"/>
  <anchor x="403.15680000000003" y="741.0" name="top"/>
  <anchor x="403.15680000000003" y="0.0" name="bottom"/>
  <outline>
    <contour>
      <point x="402.5708" y="21.38" type="curve" smooth="yes"/>
      <point x="254.26080000000002" y="21.38"/>
      <point x="154.7092" y="92.334"/>
      <point x="123.77159999999999" y="221.0" type="curve"/>
      <point x="81.60679999999999" y="221.0" type="line"/>
      <point x="81.60679999999999" y="0.0" type="line"/>
      <point x="110.56360000000001" y="0.0" type="line"/>
      <point x="121.364" y="170.0" type="line"/>
      <point x="121.3576" y="177.862"/>
      <point x="117.01080000000002" y="177.034"/>
      <point x="103.7504" y="188.31" type="curve"/>
      <point x="139.2372" y="59.126"/>
      <point x="236.8016" y="-10.0"/>
      <point x="402.07399999999996" y="-10.0" type="curve" smooth="yes"/>
      <point x="538.0232" y="-10.0"/>
      <point x="643.7955999999999" y="55.368"/>
      <point x="643.7955999999999" y="181.598" type="curve" smooth="yes"/>
      <point x="643.7955999999999" y="314.15"/>
      <point x="511.39559999999994" y="355.012"/>
      <point x="382.4556" y="385.966" type="curve" smooth="yes"/>
      <point x="262.5644" y="414.87399999999997"/>
      <point x="159.8012" y="444.552"/>
      <point x="159.8012" y="553.6320000000001" type="curve" smooth="yes"/>
      <point x="159.8012" y="639.896"/>
      <point x="230.70319999999998" y="688.666"/>
      <point x="344.668" y="688.666" type="curve" smooth="yes"/>
      <point x="463.83799999999997" y="688.666"/>
      <point x="533.9184" y="631.942"/>
      <point x="565.0216" y="524.0" type="curve"/>
      <point x="598.4384" y="524.0" type="line"/>
      <point x="598.4384" y="710.0" type="line"/>
      <point x="571.7760000000001" y="710.0" type="line"/>
      <point x="560.5156" y="565.0" type="line"/>
      <point x="577.1468" y="559.046"/>
      <point x="575.6564" y="550.92"/>
      <point x="581.914" y="554.782" type="curve"/>
      <point x="555.9664" y="662.334"/>
      <point x="476.54280000000006" y="720.0"/>
      <point x="345.6616" y="720.0" type="curve" smooth="yes"/>
      <point x="210.636" y="720.0"/>
      <point x="118.2464" y="656.6320000000001"/>
      <point x="118.2464" y="549.448" type="curve" smooth="yes"/>
      <point x="118.2464" y="419.896"/>
      <point x="248.10359999999997" y="380.942"/>
      <point x="373.5836" y="350.034" type="curve" smooth="yes"/>
      <point x="491.932" y="321.12600000000003"/>
      <point x="602.9032000000001" y="292.31"/>
      <point x="602.9032000000001" y="174.90800000000002" type="curve" smooth="yes"/>
      <point x="602.9032000000001" y="68.92"/>
      <point x="520.9956" y="21.38"/>
    </contour>
  </outline>
</glyph>
<glyph name="W" format="2">
  <advance width="1114.098"/>
  <unicode hex="0057"/>
  <anchor x="566.8908" y="741.0" name="top"/>
  <outline>
    <contour>
      <point x="12.0884" y="710.0" type="line"/>
      <point x="12.0884" y="679.218" type="line"/>
      <point x="17.465600000000002" y="679.218" type="line" smooth="yes"/>
      <point x="60.4456" y="679.218"/>
      <point x="87.1256" y="676.218"/>
      <point x="97.5056" y="642.218" type="curve" smooth="yes"/>
      <point x="305.64480000000003" y="0.0" type="line"/>
      <point x="351.252" y="0.0" type="line"/>
      <point x="567.222" y="683.16" type="line"/>
      <point x="547.462" y="683.16" type="line"/>
      <point x="775.812" y="0.0" type="line"/>
      <point x="825.836" y="0.0" type="line"/>
      <point x="1015.9667999999999" y="636.218" type="line" smooth="yes"/>
      <point x="1026.3468" y="670.218"/>
      <point x="1055.4868000000001" y="679.218"/>
      <point x="1096.0068" y="679.218" type="curve" smooth="yes"/>
      <point x="1101.9268" y="679.218" type="line"/>
      <point x="1101.9268" y="710.0" type="line"/>
      <point x="873.2872" y="710.0" type="line"/>
      <point x="873.2872" y="679.218" type="line"/>
      <point x="890.5872000000002" y="679.218" type="line" smooth="yes"/>
      <point x="934.5672000000001" y="679.218"/>
      <point x="988.47" y="672.218"/>
      <point x="988.47" y="661.218" type="curve"/>
      <point x="795.6372" y="16.61" type="line"/>
      <point x="814.1487999999999" y="16.61" type="line"/>
      <point x="581.796" y="710.0" type="line"/>
      <point x="536.7748" y="710.0" type="line"/>
      <point x="321.4304" y="20.288" type="line"/>
      <point x="340.942" y="20.288" type="line"/>
      <point x="131.7264" y="669.218" type="line"/>
      <point x="131.7264" y="676.218"/>
      <point x="187.5464" y="679.218"/>
      <point x="231.4436" y="679.218" type="curve" smooth="yes"/>
      <point x="251.28640000000001" y="679.218" type="line"/>
      <point x="251.28640000000001" y="710.0" type="line"/>
    </contour>
  </outline>
</glyph>
<glyph name="c" format="2">
  <advance width="607"/>
  <unicode hex="0063"/>
  <anchor x="320.2188" y="551.0" name="top"/>
  <anchor x="333.2244" y="0.0" name="bottom"/>
  <outline>
    <contour>
      <point x="324.228" y="19.334" type="curve" smooth="yes"/>
      <point x="187.54000000000002" y="19.334"/>
      <point x="94.83840000000001" y="106.196"/>
      <point x="94.83840000000001" y="253.046" type="curve" smooth="yes"/>
      <point x="94.83840000000001" y="391.17199999999997"/>
      <point x="180.1232" y="486.758"/>
      <point x="338.5648" y="486.758" type="curve" smooth="yes"/>
      <point x="426.4356" y="486.758"/>
      <point x="480.5996" y="457.528"/>
      <point x="503.32280000000003" y="423.976" type="curve"/>
      <point x="516" y="434"/>
      <point x="511.644" y="450.31"/>
      <point x="480.2096" y="461.034" type="curve"/>
      <point x="480.2096" y="378.562" type="line"/>
      <point x="531.5584" y="378.562" type="line"/>
      <point x="531.5584" y="456.77" type="line"/>
      <point x="518.2088" y="475.092"/>
      <point x="454.6648" y="518.0"/>
      <point x="338.5648" y="518.0" type="curve" smooth="yes"/>
      <point x="156.9272" y="518.0"/>
      <point x="50.6516" y="406.23"/>
      <point x="50.6516" y="253.046" type="curve" smooth="yes"/>
      <point x="50.6516" y="91.414"/>
      <point x="169.046" y="-11.908"/>
      <point x="324.5592" y="-11.908" type="curve" smooth="yes"/>
      <point x="450.8736" y="-11.908"/>
      <point x="519.2852" y="51.678"/>
      <point x="555.9376" y="123.448" type="curve"/>
      <point x="530.4932000000001" y="147.322" type="line"/>
      <point x="503.1812" y="87.92"/>
      <point x="441.57" y="19.334"/>
    </contour>
  </outline>
</glyph>
<glyph name="x" format="2">
  <advance width="627"/>
  <unicode hex="0078"/>
  <outline>
    <contour>
      <point x="602.0464" y="0.0" type="line"/>
      <point x="602.0464" y="30.69" type="line"/>
      <point x="601.0464" y="30.69" type="line"/>
      <point x="554.6064" y="30.69"/>
      <point x="533.2208" y="38.736000000000004"/>
      <point x="510.0836" y="64.69" type="curve" smooth="yes"/>
      <point x="323.8204" y="276.0" type="line"/>
      <point x="319.44320000000005" y="280.0" type="line"/>
      <point x="158.4" y="469.31" type="line"/>
      <point x="158.4" y="475.31"/>
      <point x="211.76" y="477.31"/>
      <point x="259.2" y="477.31" type="curve" smooth="yes"/>
      <point x="261.65999999999997" y="477.31" type="line"/>
      <point x="261.65999999999997" y="508.0" type="line"/>
      <point x="38.6332" y="508.0" type="line"/>
      <point x="38.6332" y="476.31" type="line"/>
      <point x="40.0932" y="476.31" type="line"/>
      <point x="84.0732" y="476.31"/>
      <point x="104.916" y="471.31"/>
      <point x="123.59320000000001" y="450.31" type="curve" smooth="yes"/>
      <point x="289.7348" y="254.034" type="line"/>
      <point x="294.1948" y="251.034" type="line"/>
      <point x="481.11400000000003" y="39.69" type="line"/>
      <point x="481.11400000000003" y="32.69"/>
      <point x="425.29400000000004" y="30.69"/>
      <point x="376.394" y="30.69" type="curve" smooth="yes"/>
      <point x="374.4768" y="30.69" type="line"/>
      <point x="374.4768" y="0.0" type="line"/>
    </contour>
    <contour>
      <point x="24.7932" y="0.0" type="line"/>
      <point x="244.0528" y="0.0" type="line"/>
      <point x="244.0528" y="30.69" type="line"/>
      <point x="242.0528" y="30.69" type="line" smooth="yes"/>
      <point x="196.6128" y="30.69"/>
      <point x="146.71280000000002" y="38.69"/>
      <point x="146.71280000000002" y="50.69" type="curve"/>
      <point x="317.5868" y="245.402" type="line"/>
      <point x="294.85080000000005" y="267.0" type="line"/>
      <point x="118.67320000000001" y="68.69" type="line" smooth="yes"/>
      <point x="93.6188" y="40.736000000000004"/>
      <point x="59.853199999999994" y="30.69"/>
      <point x="25.7932" y="30.69" type="curve"/>
      <point x="24.7932" y="30.69" type="line"/>
    </contour>
    <contour>
      <point x="327.7772" y="246.0" type="line"/>
      <point x="490.572" y="432.31" type="line" smooth="yes"/>
      <point x="522.0064" y="467.264"/>
      <point x="551.3948" y="477.31"/>
      <point x="590.9148" y="477.31" type="curve"/>
      <point x="591.9148" y="477.31" type="line"/>
      <point x="591.9148" y="508.0" type="line"/>
      <point x="373.65520000000004" y="508.0" type="line"/>
      <point x="373.65520000000004" y="477.31" type="line"/>
      <point x="377.1152" y="477.31" type="line" smooth="yes"/>
      <point x="420.0952" y="477.31"/>
      <point x="470.91240000000005" y="469.31"/>
      <point x="470.91240000000005" y="457.31" type="curve"/>
      <point x="310.66679999999997" y="272.50600000000003" type="line"/>
    </contour>
  </outline>
</glyph>
<glyph name="asciitilde" format="2">
  <advance width="622.3144"/>
  <unicode hex="007E"/>
  <outline>
    <contour>
      <point x="427.4468" y="267.092" type="curve" smooth="yes"/>
      <point x="508.53280000000007" y="267.092"/>
      <point x="535.7224" y="333.356"/>
      <point x="552.6544" y="384.598" type="curve"/>
      <point x="521.4924000000001" y="392.966" type="line"/>
      <point x="513.3176" y="365.598"/>
      <point x="493.14360000000005" y="301.3"/>
      <point x="425.95640000000003" y="301.3" type="curve" smooth="yes"/>
      <point x="337.00919999999996" y="301.3"/>
      <point x="306.32" y="394.50600000000003"/>
      <point x="199.6524" y="394.50600000000003" type="curve" smooth="yes"/>
      <point x="118.4008" y="394.50600000000003"/>
      <point x="80.1292" y="336.058"/>
      <point x="69.66" y="279.86199999999997" type="curve"/>
      <point x="101.7392" y="272.49399999999997" type="line"/>
      <point x="110.24520000000001" y="311.402"/>
      <point x="134.4588" y="360.344"/>
      <point x="200.7288" y="360.344" type="curve" smooth="yes"/>
      <point x="283.9216" y="360.344"/>
      <point x="327.2392" y="267.092"/>
    </contour>
  </outline>
</glyph>
<glyph name="brokenbar" format="2">
  <advance width="325.08000000000004"/>
  <unicode hex="00A6"/>
  <outline>
    <contour>
      <point x="146.0984" y="750.0" type="line"/>
      <point x="146.0984" y="380.0" type="line"/>
      <point x="178.98160000000001" y="380.0" type="line"/>
      <point x="178.98160000000001" y="750.0" type="line"/>
    </contour>
    <contour>
      <point x="146.0984" y="240.09199999999998" type="line"/>
      <point x="146.0984" y="-129.90800000000002" type="line"/>
      <point x="178.98160000000001" y="-129.90800000000002" type="line"/>
      <point x="178.98160000000001" y="240.09199999999998" type="line"/>
    </contour>
  </outline>
</glyph>
<glyph name="dieresis" format="2">
  <advance width="580.4172"/>
  <unicode hex="00A8"/>
  <anchor x="290.48" y="526.0" name="_top"/>
  <outline>
    <contour>
      <point x="174.9136" y="654.608" type="curve" smooth="yes"/>
      <point x="200.7288" y="654.608"/>
      <point x="218.9524" y="669.022"/>
      <point x="218.9524" y="695.574" type="curve" smooth="yes"/>
      <point x="218.9524" y="722.08"/>
      <point x="200.7288" y="736.494"/>
      <point x="174.9136" y="736.494" type="curve" smooth="yes"/>
      <point x="149.5584" y="736.494"/>
      <point x="130.792" y="722.08"/>
      <point x="130.792" y="695.574" type="curve" smooth="yes"/>
      <point x="130.792" y="669.022"/>
      <point x="149.5584" y="654.608"/>
    </contour>
    <contour>
      <point x="409.37760000000003" y="654.608" type="curve" smooth="yes"/>
      <point x="434.7328" y="654.608"/>
      <point x="453.4992" y="669.022"/>
      <point x="453.4992" y="695.574" type="curve" smooth="yes"/>
      <point x="453.4992" y="722.08"/>
      <point x="434.7328" y="736.494"/>
      <point x="409.37760000000003" y="736.494" type="curve" smooth="yes"/>
      <point x="384.1052" y="736.494"/>
      <point x="365.3388" y="722.08"/>
      <point x="365.3388" y="695.574" type="curve" smooth="yes"/>
      <point x="365.3388" y="669.022"/>
      <point x="384.1052" y="654.608"/>
    </contour>
  </outline>
</glyph>
<glyph name="registered" format="2">
  <advance width="975.1572000000001"/>
  <unicode hex="00AE"/>
  <outline>
    <contour>
      <point x="86.0188" y="355.0" type="curve" smooth="yes"/>
      <point x="86.0188" y="554.356"/>
      <point x="253.8468" y="707.08"/>
      <point x="487.62" y="707.08" type="curve" smooth="yes"/>
      <point x="721.3932" y="707.08"/>
      <point x="889.1384" y="554.356"/>
      <point x="889.1384" y="355.0" type="curve" smooth="yes"/>
      <point x="889.1384" y="155.644"/>
      <point x="721.3932" y="2.92"/>
      <point x="487.62" y="2.92" type="curve" smooth="yes"/>
      <point x="253.8468" y="2.92"/>
      <point x="86.0188" y="155.644"/>
    </contour>
    <contour>
      <point x="46.44" y="355.0" type="curve" smooth="yes"/>
      <point x="46.44" y="138.0"/>
      <point x="238.12" y="-28.0"/>
      <point x="487.62" y="-28.0" type="curve" smooth="yes"/>
      <point x="736.9544000000001" y="-28.0"/>
      <point x="928.7172" y="138.0"/>
      <point x="928.7172" y="355.0" type="curve" smooth="yes"/>
      <point x="928.7172" y="572.0"/>
      <point x="736.9544000000001" y="738.0"/>
      <point x="487.62" y="738.0" type="curve" smooth="yes"/>
      <point x="238.12" y="738.0"/>
      <point x="46.44" y="572.0"/>
    </contour>
    <contour>
      <point x="307.976" y="153.0" type="line"/>
      <point x="497.16560000000004" y="153.0" type="line"/>
      <point x="497.16560000000004" y="180.69" type="line"/>
      <point x="465.62440000000004" y="180.69" type="line" smooth="yes"/>
      <point x="443.40440000000007" y="180.69"/>
      <point x="414.7244" y="181.69"/>
      <point x="414.7244" y="185.69" type="curve" smooth="yes"/>
      <point x="414.7244" y="321.49399999999997" type="line"/>
      <point x="496.368" y="321.49399999999997" type="line" smooth="yes"/>
      <point x="597.8" y="321.49399999999997"/>
      <point x="669.0092" y="368.586"/>
      <point x="669.0092" y="442.77" type="curve" smooth="yes"/>
      <point x="669.0092" y="514.908"/>
      <point x="603.72" y="557.0"/>
      <point x="499.828" y="557.0" type="curve" smooth="yes"/>
      <point x="307.976" y="557.0" type="line"/>
      <point x="307.976" y="529.31" type="line"/>
      <point x="314.896" y="529.31" type="line" smooth="yes"/>
      <point x="347.496" y="529.31"/>
      <point x="372.2588" y="525.31"/>
      <point x="372.2588" y="509.31" type="curve" smooth="yes"/>
      <point x="372.2588" y="200.69" type="line" smooth="yes"/>
      <point x="372.2588" y="184.69"/>
      <point x="347.496" y="180.69"/>
      <point x="314.896" y="180.69" type="curve" smooth="yes"/>
      <point x="307.976" y="180.69" type="line"/>
    </contour>
    <contour>
      <point x="499.9936" y="526.31" type="line" smooth="yes"/>
      <point x="582.9839999999999" y="526.31"/>
      <point x="623.0836" y="502.448"/>
      <point x="623.0836" y="442.77" type="curve" smooth="yes"/>
      <point x="623.0836" y="383.954"/>
      <point x="582.9839999999999" y="352.18399999999997"/>
      <point x="496.5336" y="352.18399999999997" type="curve" smooth="yes"/>
      <point x="414.7244" y="352.18399999999997" type="line"/>
      <point x="414.7244" y="526.31" type="line"/>
    </contour>
    <contour>
      <point x="504.4104" y="340.724" type="line"/>
      <point x="616.7496" y="152.0" type="line"/>
      <point x="694.0268" y="152.0" type="line"/>
      <point x="694.0268" y="179.69" type="line"/>
      <point x="683.8492" y="179.69" type="line" smooth="yes"/>
      <point x="666.9631999999999" y="179.69"/>
      <point x="650.6632" y="182.69"/>
      <point x="642.826" y="195.69" type="curve" smooth="yes"/>
      <point x="544.6644000000001" y="347.81600000000003" type="line"/>
    </contour>
  </outline>
</glyph>
<glyph name="Lslash" format="2">
  <advance width="672.7828000000001"/>
  <unicode hex="0141"/>
  <outline>
    <contour>
      <point x="52.36" y="226.16" type="line"/>
      <point x="52.36" y="267.54" type="line"/>
      <point x="452.27" y="520.2760000000001" type="line"/>
      <point x="452.27" y="478.896" type="line"/>
    </contour>
    <component base="L" xOffset="31.224800000000002"/>
  </outline>
</glyph>
<glyph name="Eng" format="2">
  <advance width="875.7232"/>
  <unicode hex="014A"/>
  <outline>
    <contour>
      <point x="673.6044" y="16.552" type="line"/>
      <point x="673.6044" y="-22.448" type="line" smooth="yes"/>
      <point x="673.6044" y="-142.344"/>
      <point x="608.8248" y="-180.436"/>
      <point x="515.9972" y="-180.436" type="curve" smooth="yes"/>
      <point x="456.0612" y="-180.436"/>
      <point x="415.70680000000004" y="-167.712"/>
      <point x="386.64959999999996" y="-155.988" type="curve"/>
      <point x="386.64959999999996" y="-189.506" type="line"/>
      <point x="412.578" y="-201.23"/>
      <point x="453.5644" y="-212.0"/>
      <point x="515.6659999999999" y="-212.0" type="curve" smooth="yes"/>
      <point x="625.9224" y="-212.0"/>
      <point x="709.8124" y="-159.046"/>
      <point x="709.8124" y="-22.448" type="curve" smooth="yes"/>
      <point x="709.8124" y="638.218" type="line" smooth="yes"/>
      <point x="709.8124" y="667.218"/>
      <point x="751.2496" y="679.218"/>
      <point x="808.0696" y="679.218" type="curve" smooth="yes"/>
      <point x="822.4524" y="679.218" type="line"/>
      <point x="822.4524" y="710.0" type="line"/>
      <point x="550.5844000000001" y="710.0" type="line"/>
      <point x="550.5844000000001" y="679.218" type="line"/>
      <point x="566.9672" y="679.218" type="line" smooth="yes"/>
      <point x="616.7844" y="679.218"/>
      <point x="673.6044" y="671.218"/>
      <point x="673.6044" y="664.218" type="curve" smooth="yes"/>
      <point x="673.6044" y="29.898" type="line"/>
      <point x="682.4176" y="48.622" type="line"/>
      <point x="223.4996" y="710.0" type="line"/>
      <point x="52.36" y="710.0" type="line"/>
      <point x="52.36" y="679.218" type="line"/>
      <point x="65.2" y="679.218" type="line" smooth="yes"/>
      <point x="122.02000000000001" y="679.218"/>
      <point x="163.54000000000002" y="672.218"/>
      <point x="163.54000000000002" y="643.218" type="curve" smooth="yes"/>
      <point x="163.54000000000002" y="71.782" type="line" smooth="yes"/>
      <point x="163.54000000000002" y="42.782000000000004"/>
      <point x="122.02000000000001" y="30.782"/>
      <point x="65.2" y="30.782" type="curve" smooth="yes"/>
      <point x="52.36" y="30.782" type="line"/>
      <point x="52.36" y="0.0" type="line"/>
      <point x="324.228" y="0.0" type="line"/>
      <point x="324.228" y="30.782" type="line"/>
      <point x="307.928" y="30.782" type="line" smooth="yes"/>
      <point x="258.028" y="30.782"/>
      <point x="201.208" y="38.782000000000004"/>
      <point x="201.208" y="45.782000000000004" type="curve" smooth="yes"/>
      <point x="201.208" y="704.528" type="line"/>
      <point x="183.2824" y="700.528" type="line"/>
      <point x="685.298" y="-33.438" type="line"/>
    </contour>
  </outline>
</glyph>
<glyph name="OE" format="2">
  <advance width="1139.8084"/>
  <unicode hex="0152"/>
  <outline>
    <contour>
      <point x="622.0963999999999" y="31.242" type="line"/>
      <point x="490.08000000000004" y="31.242" type="line" smooth="yes"/>
      <point x="236.7776" y="31.242"/>
      <point x="98.59280000000001" y="147.78199999999998"/>
      <point x="98.59280000000001" y="353.0" type="curve" smooth="yes"/>
      <point x="98.59280000000001" y="558.218"/>
      <point x="236.7776" y="678.7579999999999"/>
      <point x="490.08000000000004" y="678.7579999999999" type="curve" smooth="yes"/>
      <point x="622.0963999999999" y="678.7579999999999" type="line"/>
    </contour>
    <contour>
      <point x="1076.6480000000001" y="0.0" type="line"/>
      <point x="1076.6480000000001" y="189.334" type="line"/>
      <point x="1048.3600000000001" y="189.334" type="line"/>
      <point x="1037.98" y="74.334" type="line" smooth="yes"/>
      <point x="1034.4899500123634" y="38.332651146452804"/>
      <point x="992.54" y="31.334"/>
      <point x="892.74" y="31.334" type="curve" smooth="yes"/>
      <point x="662.7404" y="31.334" type="line"/>
      <point x="662.7404" y="678.666" type="line"/>
      <point x="859.14" y="678.666" type="line" smooth="yes"/>
      <point x="958.94" y="678.666"/>
      <point x="999.46" y="671.666"/>
      <point x="1004.38" y="635.666" type="curve" smooth="yes"/>
      <point x="1014.76" y="545.666" type="line"/>
      <point x="1041.5052" y="545.666" type="line"/>
      <point x="1041.5052" y="710.0" type="line"/>
      <point x="490.08000000000004" y="710.0" type="line" smooth="yes"/>
      <point x="211.7012" y="710.0"/>
      <point x="54.36" y="569.0"/>
      <point x="54.36" y="353.0" type="curve" smooth="yes"/>
      <point x="54.36" y="136.0"/>
      <point x="211.7012" y="0.0"/>
      <point x="490.08000000000004" y="0.0" type="curve" smooth="yes"/>
    </contour>
    <contour>
      <point x="640.6796" y="378.552" type="line"/>
      <point x="640.6796" y="349.356" type="line"/>
      <point x="951.8608" y="345.17199999999997" type="line"/>
      <point x="951.8608" y="382.736" type="line"/>
    </contour>
  </outline>
</glyph>
<glyph name="oogonek" format="2">
  <advance width="644.1984"/>
  <unicode hex="01EB"/>
  <outline>
    <contour>
      <point x="322.0992" y="19.242" type="curve"/>
      <point x="181.9576" y="19.242"/>
      <point x="94.83840000000001" y="110.782"/>
      <point x="94.83840000000001" y="253.0" type="curve" smooth="yes"/>
      <point x="94.83840000000001" y="392.264"/>
      <point x="181.9576" y="486.758"/>
      <point x="322.0992" y="486.758" type="curve" smooth="yes"/>
      <point x="462.158" y="486.758"/>
      <point x="549.2772" y="392.264"/>
      <point x="549.2772" y="253.0" type="curve" smooth="yes"/>
      <point x="549.2772" y="109.782"/>
      <point x="462.158" y="19.242"/>
    </contour>
    <contour>
      <point x="370.1712" y="-233.138" type="curve" smooth="yes"/>
      <point x="419.0776" y="-233.138"/>
      <point x="457.8" y="-211.276"/>
      <point x="489.6484" y="-180.46" type="curve"/>
      <point x="468.5048" y="-159.816" type="line"/>
      <point x="441.8312" y="-182.31"/>
      <point x="416.1972" y="-202.126"/>
      <point x="375.3524" y="-202.126" type="curve" smooth="yes"/>
      <point x="335.67319999999995" y="-202.126"/>
      <point x="301.8312" y="-180.448"/>
      <point x="301.8312" y="-139.816" type="curve" smooth="yes"/>
      <point x="301.8312" y="-68.724"/>
      <point x="386.288" y="-36.448"/>
      <point x="491.6244" y="41.552" type="curve" smooth="yes"/>
      <point x="554.0332000000001" y="88.92"/>
      <point x="593.4639999999999" y="162.552"/>
      <point x="593.4639999999999" y="253.0" type="curve" smooth="yes"/>
      <point x="593.4639999999999" y="409.0"/>
      <point x="479.4404" y="518.0"/>
      <point x="322.0992" y="518.0" type="curve" smooth="yes"/>
      <point x="164.67520000000002" y="518.0"/>
      <point x="50.6516" y="410.0"/>
      <point x="50.6516" y="253.0" type="curve" smooth="yes"/>
      <point x="50.6516" y="95.0"/>
      <point x="164.67520000000002" y="-12.0"/>
      <point x="322.0992" y="-12.0" type="curve"/>
      <point x="359.5428" y="-12.0"/>
      <point x="392.9836" y="-5.862"/>
      <point x="424.7556" y="5.368" type="curve"/>
      <point x="416.09680000000003" y="17.828" type="line"/>
      <point x="349.104" y="-23.908"/>
      <point x="260.9388" y="-69.368"/>
      <point x="260.9388" y="-140.23" type="curve" smooth="yes"/>
      <point x="260.9388" y="-198.184"/>
      <point x="310.59040000000005" y="-233.138"/>
    </contour>
  </outline>
</glyph>
<glyph name="horizontalbar" format="2">
  <advance width="1097.26"/>
  <unicode hex="2015"/>
  <outline>
    <contour>
      <point x="0.0" y="330.69" type="line"/>
      <point x="0.0" y="299.31" type="line"/>
      <point x="1097.26" y="299.31" type="line"/>
      <point x="1097.26" y="330.69" type="line"/>
    </contour>
  </outline>
</glyph>
<glyph name="guilsinglleft" format="2">
  <advance width="338.6652"/>
  <unicode hex="2039"/>
  <outline>
    <contour>
      <point x="117.2656" y="246.39" type="line"/>
      <point x="257.6444" y="455.0" type="line"/>
      <point x="229.07120000000003" y="455.0" type="line"/>
      <point x="80.5608" y="282.13800000000003" type="line"/>
      <point x="80.5608" y="247.862" type="line"/>
      <point x="229.07120000000003" y="75.0" type="line"/>
      <point x="257.6444" y="75.0" type="line"/>
      <point x="117.18280000000001" y="281.51800000000003" type="line"/>
    </contour>
  </outline>
</glyph>
<glyph name="dong" format="2">
  <advance width="650.1600000000001"/>
  <unicode hex="20AB"/>
  <outline>
    <contour>
      <point x="90.7096" y="250.0" type="curve" smooth="yes"/>
      <point x="90.7096" y="391.356"/>
      <point x="164.98239999999998" y="486.758"/>
      <point x="297.4" y="486.758" type="curve" smooth="yes"/>
      <point x="397.396" y="486.758"/>
      <point x="467.3808" y="423.586"/>
      <point x="505.32120000000003" y="324.448" type="curve"/>
      <point x="526.3884" y="345.49399999999997" type="line"/>
      <point x="476.68440000000004" y="457.13800000000003"/>
      <point x="411.9508" y="518.0"/>
      <point x="293.94" y="518.0" type="curve" smooth="yes"/>
      <point x="147.4056" y="518.0"/>
      <point x="46.522800000000004" y="408.046"/>
      <point x="46.522800000000004" y="250.0" type="curve" smooth="yes"/>
      <point x="46.522800000000004" y="93.04599999999999"/>
      <point x="136.3632" y="-11.0"/>
      <point x="277.89480000000003" y="-11.0" type="curve" smooth="yes"/>
      <point x="404.948" y="-11.0"/>
      <point x="474.7212" y="61.586"/>
      <point x="536.2192" y="169.368" type="curve"/>
      <point x="520.486" y="196.138" type="line"/>
      <point x="466.298" y="95.184"/>
      <point x="392.6048" y="20.242"/>
      <point x="284.73199999999997" y="20.242" type="curve" smooth="yes"/>
      <point x="157.56560000000002" y="20.242"/>
      <point x="90.7096" y="108.828"/>
    </contour>
    <contour>
      <point x="498.4316" y="735.0" type="line"/>
      <point x="498.4316" y="135.988" type="line"/>
      <point x="497.5208" y="131.08" type="line"/>
      <point x="497.5208" y="0.0" type="line"/>
      <point x="637.1608" y="0.0" type="line"/>
      <point x="637.1608" y="27.828" type="line"/>
      <point x="636.4092" y="27.828" type="line"/>
      <point x="580.3408" y="27.828"/>
      <point x="539.4068" y="34.827999999999996"/>
      <point x="539.4068" y="63.827999999999996" type="curve" smooth="yes"/>
      <point x="539.4068" y="735.0" type="line"/>
    </contour>
    <contour>
      <point x="109.7596" y="-126.092" type="line"/>
      <point x="109.7596" y="-157.472" type="line"/>
      <point x="566.2284" y="-157.472" type="line"/>
      <point x="566.2284" y="-126.092" type="line"/>
    </contour>
    <contour>
      <point x="272.4588" y="628.7239999999999" type="line"/>
      <point x="272.4588" y="597.712" type="line"/>
      <point x="635.3392" y="597.712" type="line"/>
      <point x="635.3392" y="628.7239999999999" type="line"/>
    </contour>
  </outline>
</glyph>
<glyph name="arrowleft" format="2">
  <advance width="858.14"/>
  <unicode hex="2190"/>
  <outline>
    <contour>
      <point x="479.70000000000005" y="560.0" type="line"/>
      <point x="63.74" y="360.0" type="line"/>
      <point x="63.74" y="346.0" type="line"/>
      <point x="479.70000000000005" y="146.0" type="line"/>
      <point x="491.08000000000004" y="159.0" type="line"/>
      <point x="329.54" y="324.0" type="line"/>
      <point x="793.94" y="324.0" type="line"/>
      <point x="793.94" y="382.0" type="line"/>
      <point x="329.54" y="382.0" type="line"/>
      <point x="491.08000000000004" y="547.0" type="line"/>
    </contour>
  </outline>
</glyph>
<glyph name="notequal" format="2">
  <advance width="650.1600000000001"/>
  <unicode hex="2260"/>
  <outline>
    <contour>
      <point x="519.51" y="566.954" type="line"/>
      <point x="97.3336" y="87.95400000000001" type="line"/>
      <point x="132.8856" y="87.95400000000001" type="line"/>
      <point x="555.062" y="566.954" type="line"/>
    </contour>
    <component base="equal" xOffset="38.09720000000001" yOffset="0.04600000000000001"/>
  </outline>
</glyph>
<glyph name="E.alt" format="2">
  <advance width="687.0892"/>
  <outline>
    <contour>
      <point x="623.4688" y="189.334" type="line"/>
      <point x="595.7236" y="189.334" type="line"/>
      <point x="585.3436" y="74.334" type="line" smooth="yes"/>
      <point x="581.8836000000001" y="38.334"/>
      <point x="539.8208" y="31.334"/>
      <point x="440.0208" y="31.334" type="curve" smooth="yes"/>
      <point x="204.1012" y="31.334" type="line"/>
      <point x="204.1012" y="678.666" type="line"/>
      <point x="406.5036" y="678.666" type="line" smooth="yes"/>
      <point x="506.3036000000001" y="678.666"/>
      <point x="546.7408" y="671.666"/>
      <point x="551.7436" y="635.666" type="curve" smooth="yes"/>
      <point x="562.1236" y="545.666" type="line"/>
      <point x="588.8688" y="545.666" type="line"/>
      <point x="588.8688" y="710.0" type="line"/>
      <point x="52.36" y="710.0" type="line"/>
      <point x="52.36" y="679.218" type="line"/>
      <point x="65.2" y="679.218" type="line" smooth="yes"/>
      <point x="122.02000000000001" y="679.218"/>
      <point x="163.54000000000002" y="672.218"/>
      <point x="163.54000000000002" y="643.218" type="curve" smooth="yes"/>
      <point x="163.54000000000002" y="66.782" type="line" smooth="yes"/>
      <point x="163.54000000000002" y="37.782000000000004"/>
      <point x="122.02000000000001" y="30.782"/>
      <point x="65.2" y="30.782" type="curve" smooth="yes"/>
      <point x="52.36" y="30.782" type="line"/>
      <point x="52.36" y="0.0" type="line"/>
      <point x="623.4688" y="0.0" type="line"/>
    </contour>
    <contour>
      <point x="182.0404" y="348.356" type="line"/>
      <point x="444.88200000000006" y="348.356" type="line" smooth="yes"/>
      <point x="481.1904" y="348.356"/>
      <point x="492.4876" y="319.264"/>
      <point x="492.4876" y="285.264" type="curve" smooth="yes"/>
      <point x="492.4876" y="277.356" type="line"/>
      <point x="520.5576" y="277.356" type="line"/>
      <point x="520.5576" y="451.552" type="line"/>
      <point x="492.4876" y="451.552" type="line"/>
      <point x="492.4876" y="443.644" type="line" smooth="yes"/>
      <point x="492.4876" y="408.644"/>
      <point x="481.1904" y="379.552"/>
      <point x="444.88200000000006" y="379.552" type="curve" smooth="yes"/>
      <point x="182.0404" y="379.552" type="line"/>
    </contour>
  </outline>
</glyph>
<glyph name="blackdownpointingtriangle" format="2">
  <advance width="968.32"/>
  <outline>
    <contour>
      <point x="23.22" y="715.0" type="line"/>
      <point x="484.16" y="0.0" type="line"/>
      <point x="945.1" y="715.0" type="line"/>
    </contour>
  </outline>
</glyph>
<glyph name="braceleft.uc" format="2">
  <advance width="365.2448"/>
  <outline>
    <contour>
      <point x="258.7732" y="295.17199999999997" type="curve"/>
      <point x="258.7732" y="313.092"/>
      <point x="249.9664" y="320.598"/>
      <point x="128.94" y="347.0" type="curve"/>
      <point x="128.94" y="352.954" type="line"/>
      <point x="249.9664" y="379.356"/>
      <point x="258.7732" y="386.86199999999997"/>
      <point x="258.7732" y="404.782" type="curve" smooth="yes"/>
      <point x="258.7732" y="435.51800000000003"/>
      <point x="123.2268" y="552.644"/>
      <point x="123.2268" y="629.908" type="curve" smooth="yes"/>
      <point x="123.2268" y="694.586"/>
      <point x="204.92762136897485" y="732.0800693564586"/>
      <point x="342.0248" y="733.896" type="curve"/>
      <point x="325.7248" y="759.954" type="line"/>
      <point x="204.79227864079564" y="756.4605550526624"/>
      <point x="82.5" y="724.46"/>
      <point x="82.5" y="630.138" type="curve" smooth="yes"/>
      <point x="82.5" y="562.908"/>
      <point x="164.0128" y="483.804"/>
      <point x="229.4024" y="402.81600000000003" type="curve"/>
      <point x="238.28560000000002" y="409.414" type="line"/>
      <point x="58.28" y="359.50600000000003" type="line"/>
      <point x="58.28" y="340.448" type="line"/>
      <point x="238.28560000000002" y="290.54" type="line"/>
      <point x="229.4024" y="297.13800000000003" type="line"/>
      <point x="164.0128" y="216.15"/>
      <point x="82.5" y="137.046"/>
      <point x="82.5" y="69.816" type="curve" smooth="yes"/>
      <point x="82.5" y="-24.506"/>
      <point x="204.7748" y="-56.506"/>
      <point x="325.7248" y="-60.0" type="curve"/>
      <point x="342.0248" y="-33.942" type="line"/>
      <point x="204.9228" y="-32.126"/>
      <point x="123.2268" y="5.368"/>
      <point x="123.2268" y="70.04599999999999" type="curve" smooth="yes"/>
      <point x="123.2268" y="147.31"/>
      <point x="258.7732" y="264.43600000000004"/>
    </contour>
  </outline>
</glyph>
<glyph name="franc.proportional" format="2">
  <advance width="657.5288"/>
  <outline>
    <contour>
      <point x="209.714" y="393.414" type="line"/>
      <point x="209.714" y="368.12600000000003" type="line"/>
      <point x="526.6192" y="364.896" type="line"/>
      <point x="526.6192" y="396.644" type="line"/>
    </contour>
    <contour>
      <point x="231.8576" y="678.7579999999999" type="line"/>
      <point x="434.7632" y="678.7579999999999" type="line" smooth="yes"/>
      <point x="534.5632" y="678.7579999999999"/>
      <point x="575.626" y="671.7579999999999"/>
      <point x="580.086" y="635.7579999999999" type="curve" smooth="yes"/>
      <point x="590.3832" y="545.9879999999999" type="line"/>
      <point x="617.0456" y="545.9879999999999" type="line"/>
      <point x="617.0456" y="710.0" type="line"/>
      <point x="80.19919999999999" y="710.0" type="line"/>
      <point x="80.19919999999999" y="679.218" type="line"/>
      <point x="93.0392" y="679.218" type="line" smooth="yes"/>
      <point x="149.8592" y="679.218"/>
      <point x="191.2964" y="672.218"/>
      <point x="191.2964" y="643.218" type="curve" smooth="yes"/>
      <point x="191.2964" y="66.782" type="line" smooth="yes"/>
      <point x="191.2964" y="37.782000000000004"/>
      <point x="149.8592" y="30.782"/>
      <point x="93.0392" y="30.782" type="curve" smooth="yes"/>
      <point x="80.19919999999999" y="30.782" type="line"/>
      <point x="80.19919999999999" y="0.0" type="line"/>
      <point x="362.2576" y="0.0" type="line"/>
      <point x="362.2576" y="30.782" type="line"/>
      <point x="342.49760000000003" y="30.782" type="line" smooth="yes"/>
      <point x="292.5976" y="30.782"/>
      <point x="231.8576" y="31.782"/>
      <point x="231.8576" y="66.782" type="curve" smooth="yes"/>
    </contour>
    <contour>
      <point x="80.19919999999999" y="219.506" type="line"/>
      <point x="80.19919999999999" y="188.494" type="line"/>
      <point x="421.4024" y="188.494" type="line"/>
      <point x="421.4024" y="219.506" type="line"/>
    </contour>
  </outline>
</glyph>
<glyph name="heart" format="2">
  <advance width="1045.9"/>
  <outline>
    <contour>
      <point x="509.84000000000003" y="-10.0" type="line"/>
      <point x="234.66" y="273.0" type="line" smooth="yes"/>
      <point x="135.86" y="375.0"/>
      <point x="81.03999999999999" y="437.0"/>
      <point x="81.03999999999999" y="535.0" type="curve" smooth="yes"/>
      <point x="81.03999999999999" y="632.0"/>
      <point x="158.07999999999998" y="710.0"/>
      <point x="292.48" y="710.0" type="curve" smooth="yes"/>
      <point x="468.86" y="710.0"/>
      <point x="566.6600000000001" y="567.0"/>
      <point x="566.6600000000001" y="363.0" type="curve"/>
      <point x="479.70000000000005" y="363.0" type="line"/>
      <point x="479.70000000000005" y="567.0"/>
      <point x="577.04" y="710.0"/>
      <point x="753.4200000000001" y="710.0" type="curve" smooth="yes"/>
      <point x="888.28" y="710.0"/>
      <point x="964.86" y="632.0"/>
      <point x="964.86" y="535.0" type="curve" smooth="yes"/>
      <point x="964.86" y="437.0"/>
      <point x="910.04" y="375.0"/>
      <point x="811.7" y="273.0" type="curve" smooth="yes"/>
      <point x="536.52" y="-10.0" type="line"/>
    </contour>
  </outline>
</glyph>
<glyph name="kgreenlandic" format="2">
  <advance width="672.8352"/>
  <outline>
    <contour>
      <point x="639.5728" y="0.0" type="line"/>
      <point x="639.5728" y="30.69" type="line"/>
      <point x="637.1128" y="30.69" type="line"/>
      <point x="597.924" y="30.69"/>
      <point x="564.5724" y="37.644"/>
      <point x="528.264" y="68.69" type="curve" smooth="yes"/>
      <point x="267.9828" y="291.782" type="line"/>
      <point x="269.8568" y="272.632" type="line"/>
      <point x="477.86080000000004" y="428.31" type="line" smooth="yes"/>
      <point x="520.9236000000001" y="461.356"/>
      <point x="557.3212" y="477.31"/>
      <point x="607.3868" y="477.31" type="curve"/>
      <point x="609.9295999999999" y="477.31" type="line"/>
      <point x="609.9295999999999" y="508.0" type="line"/>
      <point x="361.3644" y="508.0" type="line"/>
      <point x="361.3644" y="477.31" type="line"/>
      <point x="365.82439999999997" y="477.31" type="line"/>
      <point x="404.2156" y="477.31"/>
      <point x="463.49559999999997" y="474.31"/>
      <point x="463.49559999999997" y="459.31" type="curve"/>
      <point x="227.97719999999998" y="280.632" type="line"/>
      <point x="227.97719999999998" y="275.632" type="line"/>
      <point x="504.748" y="40.69" type="line"/>
      <point x="504.748" y="33.69"/>
      <point x="453.3052" y="30.69"/>
      <point x="417.45680000000004" y="30.69" type="curve"/>
      <point x="410.2056" y="30.69" type="line"/>
      <point x="410.2056" y="0.0" type="line"/>
    </contour>
    <contour>
      <point x="41.6488" y="0.0" type="line"/>
      <point x="266.924" y="0.0" type="line"/>
      <point x="266.924" y="27.828" type="line"/>
      <point x="263.464" y="27.828" type="line" smooth="yes"/>
      <point x="232.32399999999998" y="27.828"/>
      <point x="179.964" y="30.828"/>
      <point x="179.964" y="37.827999999999996" type="curve" smooth="yes"/>
      <point x="179.964" y="508.0" type="line"/>
      <point x="41.8144" y="508.0" type="line"/>
      <point x="41.8144" y="482.034" type="line"/>
      <point x="53.028800000000004" y="480.034" type="line" smooth="yes"/>
      <point x="111.226" y="470.08"/>
      <point x="138.9888" y="464.034"/>
      <point x="138.9888" y="435.034" type="curve" smooth="yes"/>
      <point x="138.9888" y="63.827999999999996" type="line" smooth="yes"/>
      <point x="138.9888" y="34.827999999999996"/>
      <point x="99.4688" y="27.828"/>
      <point x="43.6488" y="27.828" type="curve"/>
      <point x="41.6488" y="27.828" type="line"/>
    </contour>
  </outline>
</glyph>
<glyph name="minus.sup" format="2">
  <advance width="464.4"/>
  <outline>
    <contour>
      <point x="406.12" y="575.828" type="line"/>
      <point x="58.28" y="575.828" type="line"/>
      <point x="58.28" y="545.0" type="line"/>
      <point x="406.12" y="545.0" type="line"/>
    </contour>
  </outline>
</glyph>
<glyph name="nine.lin" format="2">
  <advance width="650.1600000000001"/>
  <outline>
    <contour>
      <point x="109.2628" y="16.38" type="line"/>
      <point x="372.1723568361008" y="32.3035422761648"/>
      <point x="546.5340000000001" y="185.632"/>
      <point x="546.5340000000001" y="426.666" type="curve" smooth="yes"/>
      <point x="546.5340000000001" y="602.448"/>
      <point x="453.7955999999999" y="688.62"/>
      <point x="318.2428" y="688.62" type="curve" smooth="yes"/>
      <point x="177.574" y="688.62"/>
      <point x="95.2524" y="600.908"/>
      <point x="95.2524" y="491.276" type="curve" smooth="yes"/>
      <point x="95.2524" y="387.012"/>
      <point x="173.482" y="309.426"/>
      <point x="301.2804" y="309.426" type="curve" smooth="yes"/>
      <point x="418.4504" y="309.426"/>
      <point x="510.9404" y="383.69"/>
      <point x="562.8340000000001" y="471.736" type="curve"/>
      <point x="575.674" y="447.402" type="line"/>
      <point x="529.1208" y="360.632"/>
      <point x="426.7016" y="278.046"/>
      <point x="299.31080000000003" y="278.046" type="curve" smooth="yes"/>
      <point x="149.7" y="278.046"/>
      <point x="51.314" y="366.046"/>
      <point x="51.314" y="491.276" type="curve" smooth="yes"/>
      <point x="51.314" y="615.69"/>
      <point x="161.54000000000002" y="720.0"/>
      <point x="318.2428" y="720.0" type="curve" smooth="yes"/>
      <point x="473.538" y="720.0"/>
      <point x="590.7208" y="612.3679999999999"/>
      <point x="590.7208" y="426.666" type="curve" smooth="yes"/>
      <point x="590.7208" y="176.21800000000002"/>
      <point x="398.5490909818096" y="1.0999426545472"/>
      <point x="114.686" y="-15.0" type="curve"/>
    </contour>
  </outline>
</glyph>
<glyph name="peso.proportional" format="2">
  <advance width="702.8924000000001"/>
  <outline>
    <contour>
      <point x="52.028800000000004" y="0.0" type="line"/>
      <point x="324.79" y="0.0" type="line"/>
      <point x="324.79" y="30.782" type="line"/>
      <point x="293.10720000000003" y="30.782" type="line" smooth="yes"/>
      <point x="253.58720000000002" y="30.782"/>
      <point x="203.6872" y="33.782000000000004"/>
      <point x="203.6872" y="40.782000000000004" type="curve" smooth="yes"/>
      <point x="203.6872" y="274.264" type="line"/>
      <point x="328.13239999999996" y="274.264" type="line" smooth="yes"/>
      <point x="523.5208" y="274.264"/>
      <point x="617.7908" y="364.448"/>
      <point x="617.7908" y="495.632" type="curve" smooth="yes"/>
      <point x="617.7908" y="626.816"/>
      <point x="528.4408000000001" y="710.0"/>
      <point x="334.1352" y="710.0" type="curve" smooth="yes"/>
      <point x="52.028800000000004" y="710.0" type="line"/>
      <point x="52.028800000000004" y="679.218" type="line"/>
      <point x="64.8688" y="679.218" type="line" smooth="yes"/>
      <point x="121.6888" y="679.218"/>
      <point x="163.2088" y="672.218"/>
      <point x="163.2088" y="643.218" type="curve" smooth="yes"/>
      <point x="163.2088" y="66.782" type="line" smooth="yes"/>
      <point x="163.2088" y="37.782000000000004"/>
      <point x="121.6888" y="30.782"/>
      <point x="64.8688" y="30.782" type="curve" smooth="yes"/>
      <point x="52.028800000000004" y="30.782" type="line"/>
    </contour>
    <contour>
      <point x="334.218" y="678.7579999999999" type="line" smooth="yes"/>
      <point x="500.4581724551632" y="678.7579999999999"/>
      <point x="573.1072" y="611.9879999999999"/>
      <point x="573.1072" y="494.632" type="curve" smooth="yes"/>
      <point x="573.1072" y="380.13800000000003"/>
      <point x="502.07267441860085" y="305.414"/>
      <point x="328.298" y="305.414" type="curve" smooth="yes"/>
      <point x="203.6872" y="305.414" type="line"/>
      <point x="203.6872" y="678.7579999999999" type="line"/>
    </contour>
    <contour>
      <point x="52.028800000000004" y="510.0" type="line"/>
      <point x="52.028800000000004" y="478.988" type="line"/>
      <point x="185.9016" y="478.988" type="line"/>
      <point x="189.53360000000004" y="478.988" type="line"/>
      <point x="591.7144000000001" y="478.988" type="line"/>
      <point x="601.4256" y="478.988" type="line"/>
      <point x="710.5052000000001" y="478.988" type="line"/>
      <point x="710.5052000000001" y="510.0" type="line"/>
      <point x="606.7596" y="510.0" type="line"/>
      <point x="591.4659999999999" y="510.0" type="line"/>
      <point x="195.702" y="510.0" type="line"/>
      <point x="186.6532" y="510.0" type="line"/>
    </contour>
  </outline>
</glyph>
<glyph name="three.den" format="2">
  <advance width="376.5228"/>
  <outline>
    <contour>
      <point x="194.0876" y="22.552" type="curve" smooth="yes"/>
      <point x="260.778" y="22.552"/>
      <point x="291.504" y="51.092"/>
      <point x="291.504" y="97.04599999999999" type="curve" smooth="yes"/>
      <point x="291.504" y="142.678"/>
      <point x="261.0328" y="165.724"/>
      <point x="172.9136" y="165.724" type="curve" smooth="yes"/>
      <point x="123.26840000000001" y="165.724" type="line"/>
      <point x="123.26840000000001" y="195.09199999999998" type="line"/>
      <point x="164.5336" y="195.09199999999998" type="line" smooth="yes"/>
      <point x="236.56439999999998" y="195.09199999999998"/>
      <point x="276.664" y="211.046"/>
      <point x="276.664" y="260.77" type="curve" smooth="yes"/>
      <point x="276.664" y="294.86199999999997"/>
      <point x="248.6068" y="317.448"/>
      <point x="190.9652" y="317.448" type="curve" smooth="yes"/>
      <point x="139.32" y="317.448"/>
      <point x="102.432" y="293.586"/>
      <point x="83.96640000000001" y="266.77" type="curve"/>
      <point x="84.96640000000001" y="286.81600000000003"/>
      <point x="94.59479999999999" y="299.86199999999997"/>
      <point x="110.8948" y="302.86199999999997" type="curve"/>
      <point x="110.8948" y="247.632" type="line"/>
      <point x="63.2304" y="247.632" type="line"/>
      <point x="63.2304" y="295.724" type="line"/>
      <point x="84.156" y="320.77"/>
      <point x="130.43040000000002" y="346.0"/>
      <point x="190.5512" y="346.0" type="curve" smooth="yes"/>
      <point x="264.386" y="346.0"/>
      <point x="321.7092" y="316.0"/>
      <point x="321.7092" y="263.908" type="curve" smooth="yes"/>
      <point x="321.7092" y="201.184"/>
      <point x="250.46319999999997" y="177.954"/>
      <point x="174.16199999999998" y="177.954" type="curve"/>
      <point x="183.2936" y="185.90800000000002" type="line"/>
      <point x="298.0688" y="185.90800000000002"/>
      <point x="340.6348" y="151.77"/>
      <point x="340.6348" y="95.04599999999999" type="curve" smooth="yes"/>
      <point x="340.6348" y="34.678"/>
      <point x="279.7228" y="-6.0"/>
      <point x="193.42520000000002" y="-6.0" type="curve" smooth="yes"/>
      <point x="111.4984" y="-6.0"/>
      <point x="61.1844" y="34.954"/>
      <point x="36.4216" y="86.0" type="curve"/>
      <point x="64.4852" y="104.322" type="line"/>
      <point x="84.4936" y="65.552"/>
      <point x="128.4672" y="22.552"/>
    </contour>
  </outline>
</glyph>
<glyph name="won.proportional" format="2">
  <advance width="1052.4232000000002"/>
  <outline>
    <contour>
      <point x="22.1436" y="710.0" type="line"/>
      <point x="22.1436" y="679.218" type="line"/>
      <point x="28.0636" y="679.218" type="line" smooth="yes"/>
      <point x="71.0436" y="679.218"/>
      <point x="98.6408" y="676.218"/>
      <point x="108.1036" y="642.218" type="curve" smooth="yes"/>
      <point x="283.8976" y="0.0" type="line"/>
      <point x="333.0108" y="0.0" type="line"/>
      <point x="535.1776" y="684.908" type="line"/>
      <point x="520.7884" y="688.046" type="line"/>
      <point x="733.7952" y="0.0" type="line"/>
      <point x="786.1568" y="0.0" type="line"/>
      <point x="944.4024000000001" y="636.218" type="line" smooth="yes"/>
      <point x="952.3224" y="670.218"/>
      <point x="983.9224" y="679.218"/>
      <point x="1024.4424" y="679.218" type="curve" smooth="yes"/>
      <point x="1030.3624" y="679.218" type="line"/>
      <point x="1030.3624" y="710.0" type="line"/>
      <point x="804.0172" y="710.0" type="line"/>
      <point x="804.0172" y="679.218" type="line"/>
      <point x="821.3172" y="679.218" type="line" smooth="yes"/>
      <point x="865.2972" y="679.218"/>
      <point x="918.5744" y="672.218"/>
      <point x="918.5744" y="661.218" type="curve"/>
      <point x="758.832" y="15.23" type="line"/>
      <point x="767.4667999999999" y="13.552" type="line"/>
      <point x="551.046" y="710.0" type="line"/>
      <point x="507.8528" y="710.0" type="line"/>
      <point x="305.1432" y="18.678" type="line"/>
      <point x="314.824" y="18.816" type="line"/>
      <point x="138.7816" y="669.218" type="line"/>
      <point x="138.7816" y="676.218"/>
      <point x="194.6016" y="679.218"/>
      <point x="238.58160000000004" y="679.218" type="curve" smooth="yes"/>
      <point x="258.3416" y="679.218" type="line"/>
      <point x="258.3416" y="710.0" type="line"/>
    </contour>
    <contour>
      <point x="22.1436" y="438.87399999999997" type="line"/>
      <point x="22.1436" y="407.86199999999997" type="line"/>
      <point x="186.15" y="407.86199999999997" type="line"/>
      <point x="193.9872" y="407.86199999999997" type="line"/>
      <point x="436.7916" y="407.86199999999997" type="line"/>
      <point x="448.25440000000003" y="438.87399999999997" type="line"/>
    </contour>
    <contour>
      <point x="630.0448" y="407.86199999999997" type="line"/>
      <point x="863.3164" y="407.86199999999997" type="line"/>
      <point x="883.1528" y="407.86199999999997" type="line"/>
      <point x="1030.3624" y="407.86199999999997" type="line"/>
      <point x="1030.3624" y="438.87399999999997" type="line"/>
      <point x="617.0391999999999" y="438.87399999999997" type="line"/>
    </contour>
    <contour>
      <point x="383.1068" y="252.264" type="line"/>
      <point x="675.988" y="252.264" type="line"/>
      <point x="663.6512" y="283.276" type="line"/>
      <point x="400.9036" y="283.276" type="line"/>
    </contour>
    <contour>
      <point x="845.1232" y="252.264" type="line"/>
      <point x="1030.3624" y="252.264" type="line"/>
      <point x="1030.3624" y="283.276" type="line"/>
      <point x="843.6328000000001" y="283.276" type="line"/>
    </contour>
    <contour>
      <point x="221.64319999999998" y="283.276" type="line"/>
      <point x="22.1436" y="283.276" type="line"/>
      <point x="22.1436" y="252.264" type="line"/>
      <point x="228.06640000000002" y="252.264" type="line"/>
    </contour>
  </outline>
</glyph>
<glyph name="zero.lin" format="2">
  <advance width="650.1600000000001"/>
  <outline>
    <contour>
      <point x="325.08000000000004" y="-10.954" type="curve" smooth="yes"/>
      <point x="487.7092" y="-10.954"/>
      <point x="602.5608" y="128.506"/>
      <point x="602.5608" y="355.0" type="curve" smooth="yes"/>
      <point x="602.5608" y="581.54"/>
      <point x="487.7092" y="720.0"/>
      <point x="325.08000000000004" y="720.0" type="curve" smooth="yes"/>
      <point x="162.4630666666544" y="720.0"/>
      <point x="47.599199999999996" y="581.54"/>
      <point x="47.599199999999996" y="355.0" type="curve" smooth="yes"/>
      <point x="47.599199999999996" y="128.506"/>
      <point x="162.4630666666544" y="-10.954"/>
    </contour>
    <contour>
      <point x="325.08000000000004" y="20.426000000000002" type="curve" smooth="yes"/>
      <point x="176.8572744186008" y="20.426000000000002"/>
      <point x="91.5376" y="141.288"/>
      <point x="91.5376" y="355.0" type="curve" smooth="yes"/>
      <point x="91.5376" y="566.804"/>
      <point x="176.8572744186008" y="688.62"/>
      <point x="325.08000000000004" y="688.62" type="curve" smooth="yes"/>
      <point x="473.422821052588" y="688.62"/>
      <point x="558.6224" y="566.804"/>
      <point x="558.6224" y="355.0" type="curve" smooth="yes"/>
      <point x="558.6224" y="140.334"/>
      <point x="473.422821052588" y="20.426000000000002"/>
    </contour>
  </outline>
</glyph>
